<svg xmlns="http://www.w3.org/2000/svg" viewBox="0 0 32 32">
  <defs>
    <linearGradient id="grad" x1="0%" y1="0%" x2="100%" y2="100%">
      <stop offset="0%" stop-color="#ec4899" />
      <stop offset="50%" stop-color="#f43f5e" />
      <stop offset="100%" stop-color="#e11d48" />
    </linearGradient>
  </defs>
  <circle cx="16" cy="16" r="14" fill="#020617" stroke="url(#grad)" stroke-width="2" />
  <path d="M19 20a3 3 0 1 1-3-3 3 3 0 0 1 3 3v-9a1 1 0 0 1 .8-.98l4-1A1 1 0 0 1 25 7v2.5a1 1 0 0 1-.8.98l-2.2.55V19a3 3 0 1 1-3-3 3 3 0 0 1 3 3z" fill="url(#grad)" />
</svg>
